<?xml version="1.0" encoding="UTF-8" standalone="no"?>
<!-- Created with Inkscape (http://www.inkscape.org/) -->

<svg
   xmlns:dc="http://purl.org/dc/elements/1.1/"
   xmlns:cc="http://creativecommons.org/ns#"
   xmlns:rdf="http://www.w3.org/1999/02/22-rdf-syntax-ns#"
   xmlns:svg="http://www.w3.org/2000/svg"
   xmlns="http://www.w3.org/2000/svg"
   xmlns:sodipodi="http://sodipodi.sourceforge.net/DTD/sodipodi-0.dtd"
   xmlns:inkscape="http://www.inkscape.org/namespaces/inkscape"
   version="1.1"
   id="svg3680"
   width="82.666672"
   height="80.667358"
   viewBox="0 0 82.666672 80.667359"
   sodipodi:docname="SPEECH-4.svg"
   inkscape:version="0.92.1 r15371">
  <metadata
     id="metadata3686">
    <rdf:RDF>
      <cc:Work
         rdf:about="">
        <dc:format>image/svg+xml</dc:format>
        <dc:type
           rdf:resource="http://purl.org/dc/dcmitype/StillImage" />
        <dc:title></dc:title>
      </cc:Work>
    </rdf:RDF>
  </metadata>
  <defs
     id="defs3684" />
  <sodipodi:namedview
     pagecolor="#ffffff"
     bordercolor="#666666"
     borderopacity="1"
     objecttolerance="10"
     gridtolerance="10"
     guidetolerance="10"
     inkscape:pageopacity="0"
     inkscape:pageshadow="2"
     inkscape:window-width="1366"
     inkscape:window-height="706"
     id="namedview3682"
     showgrid="false"
     borderlayer="false"
     inkscape:zoom="3.2151638"
     inkscape:cx="-11.144096"
     inkscape:cy="58.260877"
     inkscape:window-x="-8"
     inkscape:window-y="-8"
     inkscape:window-maximized="1"
     inkscape:current-layer="svg3680"
     fit-margin-top="0"
     fit-margin-left="0"
     fit-margin-right="0"
     fit-margin-bottom="0" />
  <path
     style="fill:#94e0d2;stroke-width:1.33333337"
     d="m 9.555551,79.77778 c -0.48888,-0.488888 -0.88888,-3.150874 -0.88888,-5.915522 0,-4.69648 -0.28462,-5.054076 -4.333337,-5.444445 L 0,68.000002 V 42.000001 16 l 7.666671,-0.399872 7.66666,-0.399872 v 15.399873 c 0,21.191491 -0.53456,20.733206 24.18423,20.733206 h 18.85089 l 5.78598,5.333333 c 3.18229,2.933334 6.44112,5.333334 7.24185,5.333334 0.80072,0 1.26412,1.35 1.02979,3 -0.42049,2.960689 -0.7242,3.004767 -23.17832,3.363755 l -22.75224,0.363754 -5.8587,5.969579 c -5.47697,5.580627 -8.97671,7.185236 -11.08126,5.08069 z m 55.86002,-27.026889 -5.22478,-5.350664 -20.09539,-0.366779 -20.0954,-0.36678 V 23.333334 0 h 31.33333 31.33334 v 23.333334 c 0,23.003546 -0.0413,23.339217 -2.92445,23.749502 -2.31382,0.329269 -3.00983,1.442896 -3.33334,5.333333 -0.58493,7.034318 -4.33969,7.148642 -10.99331,0.334722 z"
     id="path3690"
     inkscape:connector-curvature="0" />
</svg>
